<mxfile host="65bd71144e">
    <diagram id="fjN8D4Odn0497USpxgly" name="Page-1">
        <mxGraphModel dx="1404" dy="1678" grid="1" gridSize="10" guides="1" tooltips="1" connect="1" arrows="1" fold="1" page="1" pageScale="1" pageWidth="1169" pageHeight="827" background="#ffffff" math="0" shadow="0">
            <root>
                <mxCell id="0"/>
                <mxCell id="1" parent="0"/>
                <mxCell id="196" value="&lt;b&gt;Storage Facility&lt;/b&gt;" style="rounded=0;whiteSpace=wrap;html=1;align=center;fillColor=#dae8fc;strokeColor=#6c8ebf;" parent="1" vertex="1">
                    <mxGeometry x="40" y="-800" width="630" height="40" as="geometry"/>
                </mxCell>
                <mxCell id="217" value="" style="rounded=0;whiteSpace=wrap;html=1;fillColor=#d5e8d4;strokeColor=#82b366;" parent="1" vertex="1">
                    <mxGeometry x="120" y="-680" width="550" height="40" as="geometry"/>
                </mxCell>
                <mxCell id="218" value="" style="rounded=0;whiteSpace=wrap;html=1;fillColor=#d5e8d4;strokeColor=#82b366;" parent="1" vertex="1">
                    <mxGeometry x="120" y="-640" width="550" height="40" as="geometry"/>
                </mxCell>
                <mxCell id="161" value="load" style="rounded=0;whiteSpace=wrap;html=1;align=center;fillColor=#dae8fc;strokeColor=#6c8ebf;" parent="1" vertex="1">
                    <mxGeometry x="40" y="-760" width="80" height="40" as="geometry"/>
                </mxCell>
                <mxCell id="163" value="save_start" style="rounded=0;whiteSpace=wrap;html=1;fillColor=#dae8fc;strokeColor=#6c8ebf;" parent="1" vertex="1">
                    <mxGeometry x="40" y="-720" width="80" height="40" as="geometry"/>
                </mxCell>
                <mxCell id="195" value="save_end" style="rounded=0;whiteSpace=wrap;html=1;fillColor=#dae8fc;strokeColor=#6c8ebf;" parent="1" vertex="1">
                    <mxGeometry x="40" y="-640" width="80" height="40" as="geometry"/>
                </mxCell>
                <mxCell id="194" value="save" style="rounded=0;whiteSpace=wrap;html=1;fillColor=#dae8fc;strokeColor=#6c8ebf;" parent="1" vertex="1">
                    <mxGeometry x="40" y="-680" width="80" height="40" as="geometry"/>
                </mxCell>
                <mxCell id="242" value="&lt;font style=&quot;font-size: 12px&quot;&gt;callback&lt;br&gt;&lt;/font&gt;" style="text;html=1;align=center;verticalAlign=middle;resizable=0;points=[];autosize=1;strokeColor=none;fillColor=none;fontSize=6;" parent="1" vertex="1">
                    <mxGeometry x="120" y="-665" width="60" height="10" as="geometry"/>
                </mxCell>
                <mxCell id="243" value="&lt;font style=&quot;font-size: 12px&quot;&gt;callback&lt;br&gt;&lt;/font&gt;" style="text;html=1;align=center;verticalAlign=middle;resizable=0;points=[];autosize=1;strokeColor=none;fillColor=none;fontSize=6;" parent="1" vertex="1">
                    <mxGeometry x="120.5" y="-625" width="60" height="10" as="geometry"/>
                </mxCell>
                <mxCell id="245" value="path" style="rounded=0;whiteSpace=wrap;html=1;" parent="1" vertex="1">
                    <mxGeometry x="400" y="-671.75" width="40" height="23.5" as="geometry"/>
                </mxCell>
                <mxCell id="248" value="value" style="rounded=0;whiteSpace=wrap;html=1;" parent="1" vertex="1">
                    <mxGeometry x="530" y="-671.75" width="39.5" height="23.5" as="geometry"/>
                </mxCell>
                <mxCell id="249" value="Registry Value" style="rounded=0;whiteSpace=wrap;html=1;" parent="1" vertex="1">
                    <mxGeometry x="569.5" y="-671.75" width="90" height="23.5" as="geometry"/>
                </mxCell>
                <mxCell id="262" value="" style="rounded=0;whiteSpace=wrap;html=1;fillColor=#d5e8d4;strokeColor=#82b366;" parent="1" vertex="1">
                    <mxGeometry x="120" y="-760" width="550" height="40" as="geometry"/>
                </mxCell>
                <mxCell id="263" value="" style="rounded=0;whiteSpace=wrap;html=1;fillColor=#d5e8d4;strokeColor=#82b366;" parent="1" vertex="1">
                    <mxGeometry x="120" y="-720" width="550" height="40" as="geometry"/>
                </mxCell>
                <mxCell id="264" value="&lt;font style=&quot;font-size: 12px&quot;&gt;callback&lt;br&gt;&lt;/font&gt;" style="text;html=1;align=center;verticalAlign=middle;resizable=0;points=[];autosize=1;strokeColor=none;fillColor=none;fontSize=6;" parent="1" vertex="1">
                    <mxGeometry x="120" y="-745" width="60" height="10" as="geometry"/>
                </mxCell>
                <mxCell id="265" value="&lt;font style=&quot;font-size: 12px&quot;&gt;callback&lt;br&gt;&lt;/font&gt;" style="text;html=1;align=center;verticalAlign=middle;resizable=0;points=[];autosize=1;strokeColor=none;fillColor=none;fontSize=6;" parent="1" vertex="1">
                    <mxGeometry x="120.5" y="-705" width="60" height="10" as="geometry"/>
                </mxCell>
                <mxCell id="333" value="Registry Path" style="rounded=0;whiteSpace=wrap;html=1;" parent="1" vertex="1">
                    <mxGeometry x="440" y="-671.75" width="80" height="23.5" as="geometry"/>
                </mxCell>
                <mxCell id="334" value="instance" style="rounded=0;whiteSpace=wrap;html=1;" parent="1" vertex="1">
                    <mxGeometry x="180" y="-751.75" width="60" height="23.5" as="geometry"/>
                </mxCell>
                <mxCell id="335" value="path" style="rounded=0;whiteSpace=wrap;html=1;" parent="1" vertex="1">
                    <mxGeometry x="399.75" y="-751.75" width="40" height="23.5" as="geometry"/>
                </mxCell>
                <mxCell id="337" value="cb" style="rounded=0;whiteSpace=wrap;html=1;" parent="1" vertex="1">
                    <mxGeometry x="529.75" y="-751.75" width="30" height="23.5" as="geometry"/>
                </mxCell>
                <mxCell id="338" value="function(Registry Path, Registry Value)" style="rounded=0;whiteSpace=wrap;html=1;fontSize=10;" parent="1" vertex="1">
                    <mxGeometry x="559.75" y="-751.75" width="100" height="23.5" as="geometry"/>
                </mxCell>
                <mxCell id="339" value="Registry Path" style="rounded=0;whiteSpace=wrap;html=1;" parent="1" vertex="1">
                    <mxGeometry x="439.75" y="-751.75" width="80" height="23.5" as="geometry"/>
                </mxCell>
                <mxCell id="354" value="Storage Facility Instance" style="rounded=0;whiteSpace=wrap;html=1;" parent="1" vertex="1">
                    <mxGeometry x="240" y="-631.75" width="150" height="23.5" as="geometry"/>
                </mxCell>
                <mxCell id="355" value="Storage Facility Instance" style="rounded=0;whiteSpace=wrap;html=1;" parent="1" vertex="1">
                    <mxGeometry x="240.5" y="-671.75" width="150" height="23.5" as="geometry"/>
                </mxCell>
                <mxCell id="356" value="Storage Facility Instance" style="rounded=0;whiteSpace=wrap;html=1;" parent="1" vertex="1">
                    <mxGeometry x="240" y="-751.75" width="150" height="23.5" as="geometry"/>
                </mxCell>
                <mxCell id="357" value="Storage Facility Instance" style="rounded=0;whiteSpace=wrap;html=1;" parent="1" vertex="1">
                    <mxGeometry x="240" y="-711.75" width="150" height="23.5" as="geometry"/>
                </mxCell>
                <mxCell id="358" value="instance" style="rounded=0;whiteSpace=wrap;html=1;" vertex="1" parent="1">
                    <mxGeometry x="180.5" y="-711.75" width="60" height="23.5" as="geometry"/>
                </mxCell>
                <mxCell id="359" value="instance" style="rounded=0;whiteSpace=wrap;html=1;" vertex="1" parent="1">
                    <mxGeometry x="180.5" y="-671.75" width="60" height="23.5" as="geometry"/>
                </mxCell>
                <mxCell id="360" value="instance" style="rounded=0;whiteSpace=wrap;html=1;" vertex="1" parent="1">
                    <mxGeometry x="180.5" y="-631.75" width="60" height="23.5" as="geometry"/>
                </mxCell>
            </root>
        </mxGraphModel>
    </diagram>
</mxfile>